<svg width="342" height="500" viewBox="0 0 342 500" fill="none" xmlns="http://www.w3.org/2000/svg">
<path fill-rule="evenodd" clip-rule="evenodd" d="M250 145.833C192.47 145.833 145.833 192.47 145.833 250C145.833 307.529 192.47 354.167 250 354.167C307.529 354.167 354.167 307.529 354.167 250C354.167 192.47 307.529 145.833 250 145.833ZM187.5 250C187.5 284.519 215.481 312.5 250 312.5C284.519 312.5 312.5 284.519 312.5 250C312.5 215.481 284.519 187.5 250 187.5C215.481 187.5 187.5 215.481 187.5 250Z" fill="#4C428E" fill-opacity="0.3"/>
<path fill-rule="evenodd" clip-rule="evenodd" d="M104.167 20.8333C58.1429 20.8333 20.8333 58.1428 20.8333 104.167V395.833C20.8333 441.856 58.1429 479.167 104.167 479.167H395.833C441.856 479.167 479.167 441.856 479.167 395.833V104.167C479.167 58.1428 441.856 20.8333 395.833 20.8333H104.167ZM395.833 62.4999H104.167C81.1548 62.4999 62.5 81.1547 62.5 104.167V395.833C62.5 418.846 81.1548 437.5 104.167 437.5H395.833C418.846 437.5 437.5 418.846 437.5 395.833V104.167C437.5 81.1547 418.846 62.4999 395.833 62.4999Z" fill="#4C428E" fill-opacity="0.3"/>
</svg>
