<svg width="38" height="55" viewBox="0 0 38 55" fill="none" xmlns="http://www.w3.org/2000/svg">
<g clip-path="url(#clip0)">
<path d="M17.0474 53.8903C2.66891 31.2631 0 28.9408 0 20.625C0 9.23409 8.50656 0 19 0C29.4934 0 38 9.23409 38 20.625C38 28.9408 35.3311 31.2631 20.9526 53.8903C20.0091 55.37 17.9908 55.3699 17.0474 53.8903ZM19 29.2188C23.3723 29.2188 26.9167 25.3712 26.9167 20.625C26.9167 15.8788 23.3723 12.0312 19 12.0312C14.6277 12.0312 11.0833 15.8788 11.0833 20.625C11.0833 25.3712 14.6277 29.2188 19 29.2188Z" fill="white"/>
</g>
<defs>
<clipPath id="clip0">
<rect width="38" height="55" fill="white"/>
</clipPath>
</defs>
</svg>
