<svg width="56" height="55" viewBox="0 0 56 55" fill="none" xmlns="http://www.w3.org/2000/svg">
<path fill-rule="evenodd" clip-rule="evenodd" d="M28.1214 15.968C21.8222 15.968 16.7157 21.0746 16.7157 27.3738C16.7157 33.6729 21.8222 38.7795 28.1214 38.7795C34.4206 38.7795 39.5272 33.6729 39.5272 27.3738C39.5272 21.0746 34.4206 15.968 28.1214 15.968ZM21.278 27.3738C21.278 31.1534 24.3418 34.2172 28.1214 34.2172C31.9011 34.2172 34.9649 31.1534 34.9649 27.3738C34.9649 23.5941 31.9011 20.5303 28.1214 20.5303C24.3418 20.5303 21.278 23.5941 21.278 27.3738Z" fill="white"/>
<path d="M41.8083 11.4058C40.5484 11.4058 39.5272 12.4271 39.5272 13.6869C39.5272 14.9467 40.5484 15.9681 41.8083 15.9681C43.0682 15.9681 44.0895 14.9467 44.0895 13.6869C44.0895 12.4271 43.0682 11.4058 41.8083 11.4058Z" fill="white"/>
<path fill-rule="evenodd" clip-rule="evenodd" d="M12.1534 2.28125C7.114 2.28125 3.02878 6.36647 3.02878 11.4059V43.342C3.02878 48.3812 7.114 52.4666 12.1534 52.4666H44.0895C49.1288 52.4666 53.2141 48.3812 53.2141 43.342V11.4059C53.2141 6.36647 49.1288 2.28125 44.0895 2.28125H12.1534ZM44.0895 6.84355H12.1534C9.63369 6.84355 7.59108 8.88616 7.59108 11.4059V43.342C7.59108 45.8617 9.63369 47.9043 12.1534 47.9043H44.0895C46.6092 47.9043 48.6518 45.8617 48.6518 43.342V11.4059C48.6518 8.88616 46.6092 6.84355 44.0895 6.84355Z" fill="white"/>
</svg>
