<svg width="55" height="55" viewBox="0 0 55 55" fill="none" xmlns="http://www.w3.org/2000/svg">
<path fill-rule="evenodd" clip-rule="evenodd" d="M11.6486 15.9681H43.5847C44.8446 15.9681 45.8659 16.9894 45.8659 18.2492V36.4984C45.8659 37.7583 44.8446 38.7796 43.5847 38.7796H11.6486C10.3888 38.7796 9.36746 37.7583 9.36746 36.4984V18.2492C9.36746 16.9894 10.3888 15.9681 11.6486 15.9681ZM4.80516 18.2492C4.80516 14.4697 7.86909 11.4058 11.6486 11.4058H43.5847C47.3644 11.4058 50.4282 14.4697 50.4282 18.2492V36.4984C50.4282 40.2781 47.3644 43.3419 43.5847 43.3419H11.6486C7.86909 43.3419 4.80516 40.2781 4.80516 36.4984V18.2492ZM23.0544 20.5304L32.179 27.3738L23.0544 34.2173V20.5304Z" fill="white"/>
</svg>
